<?xml version="1.0" standalone="no"?>
<!DOCTYPE svg PUBLIC "-//W3C//DTD SVG 20010904//EN"
 "http://www.w3.org/TR/2001/REC-SVG-20010904/DTD/svg10.dtd">
<svg version="1.0" xmlns="http://www.w3.org/2000/svg"
 width="232.000000pt" height="232.000000pt" viewBox="0 0 232.000000 232.000000"
 preserveAspectRatio="xMidYMid meet">
<metadata>
Created by potrace 1.11, written by Peter Selinger 2001-2013
</metadata>
<g transform="translate(0.000000,232.000000) scale(0.100000,-0.100000)"
fill="#000000" stroke="none">
<path d="M1031 1940 c-75 -16 -143 -41 -226 -83 -113 -58 -264 -208 -322 -322
-73 -141 -88 -208 -88 -380 0 -144 2 -154 33 -245 92 -263 295 -452 562 -522
105 -27 276 -27 385 1 283 73 505 297 576 580 18 71 21 106 17 220 -4 120 -8
146 -35 224 -87 247 -273 426 -528 507 -79 25 -294 37 -374 20z m323 -100
c126 -32 229 -91 321 -185 90 -91 135 -160 171 -264 110 -317 -18 -668 -306
-837 -132 -78 -285 -110 -441 -93 -266 30 -498 217 -583 469 -38 111 -47 271
-22 383 31 140 118 284 228 381 67 58 214 133 298 151 98 20 243 19 334 -5z"/>
<path d="M1152 1383 c-5 -10 -28 -80 -52 -156 l-44 -139 -36 41 c-34 40 -37
41 -97 41 l-63 0 0 58 c0 32 -5 63 -12 70 -7 7 -39 12 -74 12 -80 0 -94 -13
-94 -85 l0 -54 -41 -3 c-79 -6 -76 -68 2 -68 l39 0 0 -48 c0 -26 5 -53 12 -60
16 -16 140 -16 156 0 7 7 12 34 12 60 l0 48 49 0 c47 0 50 -2 96 -56 70 -82
79 -77 130 76 l42 125 16 -55 c9 -30 28 -102 42 -160 41 -165 61 -169 132 -25
l48 95 42 0 43 0 0 -48 c0 -26 5 -53 12 -60 16 -16 140 -16 156 0 7 7 12 34
12 60 l0 48 38 0 c41 0 62 14 62 41 0 20 -20 29 -66 29 l-34 0 0 58 c0 32 -5
63 -12 70 -7 7 -40 12 -80 12 -79 0 -88 -9 -88 -89 l0 -50 -62 -3 -63 -3 -36
-68 -36 -68 -43 168 c-48 191 -53 203 -80 203 -11 0 -23 -8 -28 -17z"/>
</g>
</svg>
